<svg xmlns="http://www.w3.org/2000/svg" xmlns:xlink="http://www.w3.org/1999/xlink" width="400" viewBox="0 0 300 299.999988" height="400" preserveAspectRatio="xMidYMid meet"><path fill="#000000" d="M 142.914062 145.285156 C 142.914062 145.203125 143 145.203125 143 145.121094 C 135.160156 137.785156 132.605469 129.546875 139.535156 120.152344 L 149.761719 106.308594 C 150.175781 105.730469 150.09375 104.988281 149.515625 104.578125 C 148.9375 104.164062 148.113281 104.246094 147.699219 104.824219 L 122.953125 136.550781 C 122.703125 136.878906 122.210938 136.964844 121.878906 136.714844 C 121.550781 136.46875 121.46875 135.972656 121.714844 135.644531 L 146.214844 102.515625 C 146.378906 102.269531 146.296875 101.941406 146.132812 101.777344 C 145.886719 101.609375 145.554688 101.609375 145.390625 101.859375 L 120.066406 134.410156 C 119.816406 134.738281 119.320312 134.820312 118.992188 134.574219 C 118.660156 134.324219 118.578125 133.832031 118.828125 133.503906 L 143.328125 100.375 C 143.492188 100.128906 143.410156 99.796875 143.246094 99.632812 C 143 99.46875 142.667969 99.46875 142.503906 99.714844 L 117.175781 132.183594 C 116.929688 132.511719 116.433594 132.59375 116.105469 132.347656 C 115.773438 132.101562 115.691406 131.605469 115.941406 131.277344 L 140.441406 98.148438 C 140.605469 97.902344 140.523438 97.574219 140.359375 97.410156 C 140.109375 97.242188 139.78125 97.242188 139.617188 97.492188 L 114.289062 129.957031 C 114.042969 130.289062 113.546875 130.371094 113.21875 130.125 C 112.886719 129.875 112.804688 129.382812 113.050781 129.050781 L 137.554688 96.007812 C 137.71875 95.761719 137.636719 95.429688 137.472656 95.265625 C 137.222656 95.101562 136.894531 95.101562 136.730469 95.347656 L 111.730469 127.816406 C 111.484375 128.144531 110.988281 128.226562 110.660156 127.980469 C 110.328125 127.734375 110.246094 127.238281 110.496094 126.910156 L 134.914062 93.863281 C 135.078125 93.617188 134.996094 93.289062 134.832031 93.125 C 134.582031 92.957031 134.253906 92.957031 134.089844 93.207031 L 108.84375 125.589844 C 108.597656 125.921875 108.101562 126.003906 107.773438 125.753906 C 107.441406 125.507812 107.359375 125.015625 107.609375 124.683594 L 132.027344 91.640625 C 132.191406 91.394531 132.109375 91.0625 131.945312 90.898438 C 131.695312 90.734375 131.367188 90.734375 131.203125 90.980469 L 105.957031 123.367188 C 105.710938 123.695312 105.214844 123.777344 104.886719 123.53125 C 104.554688 123.285156 104.472656 122.789062 104.71875 122.460938 L 129.140625 89.496094 C 129.304688 89.25 129.222656 88.921875 129.054688 88.753906 C 128.808594 88.589844 128.480469 88.589844 128.3125 88.839844 L 103.070312 121.140625 C 102.824219 121.472656 102.328125 121.554688 101.996094 121.304688 C 101.667969 121.058594 101.585938 120.5625 101.832031 120.234375 L 126.25 87.273438 C 126.417969 87.023438 126.417969 86.695312 126.167969 86.53125 C 125.921875 86.367188 125.589844 86.367188 125.425781 86.613281 L 100.265625 118.917969 C 100.019531 119.246094 99.523438 119.328125 99.191406 119.082031 C 98.863281 118.832031 98.78125 118.339844 99.027344 118.007812 L 123.363281 85.046875 C 123.53125 84.800781 123.445312 84.472656 123.28125 84.304688 C 123.035156 84.140625 122.703125 84.140625 122.539062 84.386719 L 97.378906 116.691406 C 97.128906 117.019531 96.636719 117.101562 96.304688 116.855469 C 95.976562 116.609375 95.894531 116.113281 96.140625 115.785156 L 120.476562 82.90625 C 120.640625 82.65625 120.558594 82.328125 120.394531 82.164062 C 120.148438 82 119.816406 82 119.652344 82.246094 L 94.492188 114.464844 C 94.242188 114.796875 93.75 114.878906 93.417969 114.632812 C 93.089844 114.382812 93.003906 113.890625 93.253906 113.558594 L 117.589844 80.679688 C 117.753906 80.433594 117.671875 80.101562 117.507812 79.9375 C 117.257812 79.773438 116.929688 79.773438 116.765625 80.019531 L 91.6875 112.242188 C 91.4375 112.570312 90.945312 112.652344 90.613281 112.40625 C 90.285156 112.160156 90.199219 111.664062 90.449219 111.335938 L 114.785156 78.457031 C 114.949219 78.207031 114.867188 77.878906 114.703125 77.714844 C 114.453125 77.546875 114.125 77.546875 113.960938 77.796875 L 88.882812 110.015625 C 88.632812 110.347656 88.136719 110.429688 87.808594 110.179688 C 87.480469 109.933594 87.394531 109.441406 87.644531 109.109375 L 111.898438 76.3125 C 112.0625 76.066406 111.980469 75.734375 111.816406 75.570312 C 111.566406 75.40625 111.238281 75.40625 111.074219 75.652344 L 85.992188 107.792969 C 85.746094 108.121094 85.25 108.203125 84.921875 107.957031 C 84.589844 107.710938 84.507812 107.214844 84.757812 106.886719 L 109.011719 74.085938 C 109.175781 73.839844 109.175781 73.511719 108.925781 73.347656 C 108.679688 73.179688 108.351562 73.179688 108.183594 73.429688 L 83.105469 105.566406 C 82.859375 105.894531 82.363281 105.980469 82.035156 105.730469 C 81.703125 105.484375 81.621094 104.988281 81.867188 104.660156 L 106.121094 71.863281 C 106.289062 71.617188 106.289062 71.285156 106.039062 71.121094 C 105.792969 70.957031 105.460938 70.957031 105.296875 71.203125 L 80.300781 103.339844 C 80.054688 103.671875 79.558594 103.753906 79.230469 103.507812 C 78.898438 103.257812 78.816406 102.765625 79.0625 102.433594 L 103.316406 69.71875 C 103.484375 69.472656 103.398438 69.144531 103.234375 68.980469 C 102.988281 68.8125 102.65625 68.8125 102.492188 69.0625 L 77.496094 101.117188 C 77.25 101.445312 76.753906 101.527344 76.425781 101.28125 C 76.09375 101.035156 76.011719 100.539062 76.257812 100.210938 L 100.429688 67.496094 C 100.59375 67.246094 100.59375 66.917969 100.347656 66.753906 C 100.101562 66.589844 99.769531 66.589844 99.605469 66.835938 L 74.609375 98.890625 C 74.363281 99.222656 73.867188 99.304688 73.535156 99.054688 C 73.207031 98.808594 73.125 98.316406 73.371094 97.984375 L 97.542969 65.269531 C 97.707031 65.023438 97.625 64.695312 97.460938 64.527344 C 97.214844 64.363281 96.882812 64.363281 96.71875 64.609375 L 71.722656 96.667969 C 71.472656 96.996094 70.980469 97.078125 70.648438 96.832031 C 70.320312 96.585938 70.238281 96.089844 70.484375 95.761719 L 94.65625 63.128906 C 94.820312 62.878906 94.738281 62.550781 94.574219 62.386719 C 94.324219 62.222656 93.996094 62.222656 93.832031 62.46875 L 68.917969 94.441406 C 68.667969 94.773438 68.175781 94.855469 67.84375 94.605469 C 67.515625 94.359375 67.433594 93.863281 67.679688 93.535156 L 91.851562 60.902344 C 92.015625 60.65625 91.933594 60.324219 91.769531 60.160156 C 91.519531 59.996094 91.191406 59.996094 91.027344 60.242188 L 66.359375 92.710938 C 66.113281 93.039062 65.617188 93.125 65.289062 92.875 C 64.957031 92.628906 64.875 92.132812 65.121094 91.804688 L 89.210938 59.253906 C 89.375 59.007812 89.375 58.679688 89.128906 58.511719 C 88.882812 58.347656 88.550781 58.347656 88.386719 58.59375 L 63.472656 90.570312 C 63.226562 90.898438 62.730469 90.980469 62.398438 90.734375 C 62.070312 90.484375 61.988281 89.992188 62.234375 89.664062 L 86.324219 57.113281 C 86.488281 56.863281 86.40625 56.535156 86.242188 56.371094 C 85.992188 56.207031 85.664062 56.207031 85.5 56.453125 L 60.585938 88.34375 C 60.335938 88.671875 59.84375 88.753906 59.511719 88.507812 C 59.183594 88.261719 59.101562 87.765625 59.347656 87.4375 L 83.4375 54.886719 C 83.601562 54.640625 83.519531 54.308594 83.355469 54.144531 C 83.105469 53.980469 82.777344 53.980469 82.609375 54.226562 L 57.78125 86.117188 C 57.53125 86.449219 57.039062 86.53125 56.707031 86.285156 C 56.378906 86.035156 56.296875 85.542969 56.542969 85.210938 L 80.550781 52.746094 C 80.714844 52.496094 80.632812 52.167969 80.464844 52.003906 C 80.21875 51.839844 79.890625 51.839844 79.722656 52.085938 L 54.894531 83.976562 C 54.644531 84.304688 54.148438 84.386719 53.820312 84.140625 C 53.488281 83.894531 53.40625 83.398438 53.65625 83.070312 L 77.660156 50.601562 C 77.828125 50.355469 77.742188 50.023438 77.578125 49.859375 C 77.332031 49.695312 77 49.695312 76.835938 49.941406 L 52.003906 81.75 C 51.757812 82.082031 51.261719 82.164062 50.933594 81.917969 C 50.601562 81.667969 50.519531 81.175781 50.769531 80.84375 L 74.773438 48.378906 C 74.9375 48.128906 74.855469 47.800781 74.691406 47.636719 C 74.445312 47.46875 74.113281 47.46875 73.949219 47.71875 L 49.199219 79.527344 C 48.953125 79.855469 48.457031 79.9375 48.128906 79.691406 C 47.796875 79.445312 47.714844 78.949219 47.964844 78.621094 L 71.96875 46.234375 C 72.132812 45.988281 72.132812 45.65625 71.886719 45.492188 C 71.640625 45.328125 71.308594 45.328125 71.144531 45.574219 L 46.394531 77.382812 C 46.148438 77.714844 45.652344 77.796875 45.324219 77.546875 C 44.992188 77.300781 44.910156 76.808594 45.15625 76.476562 L 69.082031 44.09375 C 69.246094 43.84375 69.164062 43.515625 69 43.351562 C 68.753906 43.1875 68.421875 43.1875 68.257812 43.433594 L 43.507812 75.160156 C 43.261719 75.488281 42.765625 75.570312 42.4375 75.324219 C 42.105469 75.078125 42.023438 74.582031 42.269531 74.253906 L 66.195312 41.867188 C 66.359375 41.621094 66.277344 41.289062 66.113281 41.125 C 65.863281 40.960938 65.535156 40.960938 65.371094 41.207031 L 40.621094 72.933594 C 40.375 73.261719 39.878906 73.347656 39.546875 73.097656 C 39.21875 72.851562 39.136719 72.355469 39.382812 72.027344 L 63.308594 39.722656 C 63.472656 39.476562 63.390625 39.148438 63.226562 38.984375 C 63.058594 38.816406 62.648438 38.816406 62.480469 39.066406 L 37.816406 70.792969 C 37.570312 71.121094 37.074219 71.203125 36.742188 70.957031 C 36.414062 70.710938 36.332031 70.214844 36.578125 69.886719 L 60.503906 37.582031 C 60.667969 37.335938 60.585938 37.003906 60.417969 36.839844 C 60.171875 36.675781 59.84375 36.675781 59.675781 36.921875 L 35.011719 68.566406 C 34.761719 68.894531 34.269531 68.976562 33.9375 68.730469 C 33.609375 68.484375 33.527344 67.988281 33.773438 67.660156 L 57.613281 35.355469 C 57.78125 35.109375 57.699219 34.78125 57.53125 34.617188 C 57.285156 34.449219 56.953125 34.449219 56.789062 34.699219 L 32.371094 66.425781 C 32.125 66.753906 31.628906 66.835938 31.296875 66.589844 C 30.96875 66.339844 30.886719 65.847656 31.132812 65.515625 L 54.976562 33.296875 C 55.140625 33.050781 55.058594 32.71875 54.894531 32.554688 C 54.726562 32.390625 54.316406 32.390625 54.148438 32.636719 L 29.484375 64.28125 C 29.238281 64.609375 28.742188 64.695312 28.410156 64.445312 C 28.082031 64.199219 28 63.703125 28.246094 63.375 L 52.085938 31.15625 C 52.253906 30.90625 52.253906 30.578125 52.003906 30.414062 C 51.757812 30.246094 51.429688 30.246094 51.261719 30.496094 L 26.679688 62.054688 C 26.429688 62.386719 25.9375 62.46875 25.605469 62.222656 C 25.277344 61.972656 25.195312 61.480469 25.441406 61.148438 L 49.28125 28.929688 C 49.449219 28.683594 49.367188 28.351562 49.199219 28.1875 C 48.953125 28.023438 48.621094 28.023438 48.457031 28.269531 L 23.378906 60.410156 L 22.71875 59.914062 L 46.726562 27.777344 C 47.136719 27.28125 46.972656 26.539062 46.476562 26.128906 C 45.984375 25.714844 45.242188 25.796875 44.828125 26.292969 L 18.429688 56.535156 C 15.707031 60.160156 16.449219 65.269531 20.078125 67.90625 L 131.117188 153.195312 Z M 142.914062 145.285156 " fill-opacity="1" fill-rule="nonzero"></path><path fill="#000000" d="M 249.664062 239.394531 L 173.851562 172.234375 L 169.890625 183.109375 L 247.355469 242.605469 C 248.347656 243.347656 249.75 243.019531 250.324219 241.863281 C 250.65625 241.042969 250.410156 239.96875 249.664062 239.394531 Z M 249.664062 239.394531 " fill-opacity="1" fill-rule="nonzero"></path><path fill="#000000" d="M 83.269531 226.867188 C 86.074219 229.011719 89.625 230.082031 93.171875 225.960938 C 95.480469 223.242188 95.398438 221.179688 94.902344 219.863281 C 95.726562 218.957031 96.554688 217.96875 97.296875 216.980469 C 99.277344 214.09375 100.59375 211.046875 101.253906 207.914062 C 102.164062 203.792969 103.234375 199.839844 104.636719 196.210938 C 113.960938 182.945312 128.890625 171.492188 142.667969 172.644531 C 143.660156 172.726562 144.648438 172.808594 145.636719 172.808594 C 142.914062 163.910156 142.667969 157.152344 143.824219 151.382812 L 110.742188 173.46875 C 102.574219 178.90625 92.429688 180.144531 82.859375 177.589844 C 82.777344 177.589844 82.695312 177.507812 82.609375 177.507812 C 72.050781 174.871094 60.75 179.238281 54.894531 188.382812 C 45.734375 202.722656 52.664062 221.757812 69 226.703125 C 73.703125 228.269531 78.652344 228.1875 83.269531 226.867188 Z M 61.492188 195.386719 C 65.371094 187.230469 75.105469 183.6875 83.269531 187.558594 C 91.4375 191.433594 94.984375 201.15625 91.109375 209.316406 C 87.230469 217.472656 77.496094 221.015625 69.328125 217.144531 C 61.164062 213.269531 57.613281 203.546875 61.492188 195.386719 Z M 61.492188 195.386719 " fill-opacity="1" fill-rule="nonzero"></path><path fill="#000000" d="M 282.085938 59.253906 L 189.9375 120.648438 L 174.757812 162.261719 C 177.648438 159.542969 180.453125 156.492188 183.667969 153.445312 C 194.394531 143.554688 205.035156 133.667969 215.761719 123.777344 C 238.117188 103.09375 260.472656 82.492188 282.746094 61.808594 C 282.996094 61.5625 283.324219 61.316406 283.570312 61.066406 C 284.644531 60.078125 283.324219 58.429688 282.085938 59.253906 Z M 282.085938 59.253906 " fill-opacity="1" fill-rule="nonzero"></path><path fill="#000000" d="M 224.175781 10.636719 C 224.007812 10.964844 223.84375 11.292969 223.679688 11.625 C 208.914062 38.160156 194.144531 64.777344 179.296875 91.308594 C 172.203125 104 165.105469 116.773438 158.09375 129.464844 C 150.421875 143.144531 141.511719 150.972656 149.1875 173.878906 C 153.558594 186.902344 145.96875 204.125 135.328125 216.320312 C 132.109375 218.542969 128.480469 220.523438 124.683594 222.417969 C 121.796875 223.820312 119.15625 225.878906 116.847656 228.433594 C 109.503906 236.671875 108.433594 248.703125 114.042969 258.179688 C 116.847656 262.878906 120.808594 266.339844 125.261719 268.398438 C 130.625 270.871094 134.996094 274.828125 137.964844 279.9375 C 140.441406 284.222656 144.070312 288.34375 149.1875 289.742188 C 152.566406 290.648438 158.34375 283.480469 154.382812 280.679688 C 153.476562 280.019531 152.320312 279.195312 151.082031 278.289062 C 146.875 275.238281 146.875 268.976562 151.082031 265.925781 C 152.320312 265.019531 153.558594 263.949219 154.628906 262.796875 C 162.136719 254.96875 163.703125 242.9375 158.671875 233.296875 C 158.589844 233.210938 158.589844 233.128906 158.507812 233.046875 C 153.804688 224.394531 152.566406 214.257812 155.949219 205.03125 L 226.402344 11.707031 C 226.898438 10.304688 224.917969 9.398438 224.175781 10.636719 Z M 148.773438 235.027344 C 154.464844 242.03125 153.308594 252.332031 146.296875 258.015625 C 139.285156 263.703125 128.972656 262.550781 123.28125 255.542969 C 117.589844 248.539062 118.746094 238.238281 125.757812 232.554688 C 132.769531 226.867188 143.082031 228.019531 148.773438 235.027344 Z M 161.808594 160.367188 C 160.238281 162.179688 157.519531 162.425781 155.703125 160.859375 C 153.886719 159.292969 153.640625 156.574219 155.207031 154.761719 C 156.773438 152.949219 159.496094 152.703125 161.3125 154.269531 C 163.046875 155.832031 163.292969 158.554688 161.808594 160.367188 Z M 161.808594 160.367188 " fill-opacity="1" fill-rule="nonzero"></path></svg>