<svg xmlns="http://www.w3.org/2000/svg" xmlns:xlink="http://www.w3.org/1999/xlink" width="400" viewBox="0 0 300 299.999988" height="400" preserveAspectRatio="xMidYMid meet"><path fill="#000000" d="M 269.679688 131.933594 C 269.652344 131.851562 268.765625 129.976562 268.507812 130.546875 C 263.054688 142.589844 249.875 152.289062 236.316406 148.375 C 220.609375 143.84375 212.152344 127.257812 197.855469 120.121094 C 180.734375 111.578125 157.914062 115.839844 150 134.75 C 142.085938 115.839844 119.265625 111.578125 102.144531 120.121094 C 87.84375 127.253906 79.390625 143.84375 63.679688 148.375 C 50.125 152.28125 36.941406 142.585938 31.488281 130.542969 C 31.230469 129.972656 30.347656 131.851562 30.320312 131.929688 C 30.058594 132.726562 30.804688 134.621094 30.992188 135.4375 C 31.554688 137.855469 32.324219 140.222656 33.273438 142.507812 C 38.539062 155.132812 50.34375 167.558594 60.820312 176.074219 C 74.539062 187.21875 92.035156 188.378906 108.597656 183.980469 C 123.523438 180.015625 139.671875 172.914062 147.992188 159.125 C 148.789062 157.804688 149.429688 156.4375 149.996094 155.050781 C 150.5625 156.4375 151.207031 157.804688 152 159.125 C 160.320312 172.914062 176.472656 180.011719 191.398438 183.980469 C 207.960938 188.378906 225.457031 187.21875 239.171875 176.074219 C 249.652344 167.558594 261.457031 155.132812 266.71875 142.507812 C 267.675781 140.222656 268.441406 137.855469 269.003906 135.4375 C 269.195312 134.628906 269.9375 132.730469 269.679688 131.933594 Z M 269.679688 131.933594 " fill-opacity="1" fill-rule="nonzero"></path></svg>