<svg xmlns="http://www.w3.org/2000/svg" xmlns:xlink="http://www.w3.org/1999/xlink" width="400" viewBox="0 0 300 299.999988" height="400" preserveAspectRatio="xMidYMid meet"><defs><clipPath id="dcaba0eb86"><path d="M 30 57.75 L 264 57.75 L 264 236 L 30 236 Z M 30 57.75 " clip-rule="nonzero"></path></clipPath></defs><g clip-path="url(#dcaba0eb86)"><path fill="#000000" d="M 261.054688 212.328125 C 247.78125 190.339844 217.6875 155.265625 152.515625 101.367188 C 148.042969 97.6875 141.523438 97.964844 137.421875 102.066406 C 133.089844 106.398438 133.042969 113.339844 137.28125 117.765625 C 157.6875 139.007812 212.796875 196.769531 226.210938 215.03125 C 230.171875 220.433594 234.269531 225.28125 238.183594 229.519531 C 249.96875 242.234375 270 227.144531 261.054688 212.328125 Z M 147.4375 111.988281 C 145.992188 113.433594 143.664062 113.433594 142.21875 111.988281 C 140.777344 110.542969 140.777344 108.214844 142.21875 106.769531 C 143.664062 105.324219 145.992188 105.324219 147.4375 106.769531 C 148.882812 108.214844 148.882812 110.542969 147.4375 111.988281 Z M 251.597656 222.902344 C 250.15625 224.347656 247.824219 224.347656 246.382812 222.902344 C 244.9375 221.460938 244.9375 219.128906 246.382812 217.6875 C 247.824219 216.242188 250.15625 216.242188 251.597656 217.6875 C 253.042969 219.082031 253.042969 221.460938 251.597656 222.902344 Z M 178.835938 85.480469 C 183.402344 78.167969 186.429688 69.921875 187.359375 60.605469 C 187.5 59.253906 186.523438 58.042969 185.171875 57.902344 C 183.820312 57.765625 182.609375 58.742188 182.46875 60.09375 C 180.976562 75.511719 173.851562 87.625 161.320312 96.195312 C 159.78125 97.265625 158.246094 98.152344 156.800781 98.992188 C 158.386719 100.296875 159.96875 101.597656 161.507812 102.902344 C 167.75 98.152344 174.828125 91.910156 178.835938 85.480469 Z M 133.976562 120.976562 C 132.671875 119.628906 131.597656 118.042969 130.902344 116.367188 L 31.628906 215.589844 C 30 217.265625 30 219.921875 31.628906 221.597656 L 43.976562 233.992188 C 45.605469 235.621094 48.214844 235.667969 49.890625 234.082031 C 69.039062 215.960938 87.71875 197.328125 105.839844 178.230469 L 127.5 155.449219 C 128.292969 154.613281 128.433594 153.355469 127.824219 152.421875 C 125.777344 149.066406 122.933594 139.9375 136.675781 123.820312 C 135.699219 122.75 134.765625 121.816406 133.976562 120.976562 Z M 120.886719 154.984375 L 101.460938 175.386719 C 93.214844 184.054688 84.734375 192.765625 76.257812 201.242188 C 67.265625 210.234375 57.996094 219.269531 48.726562 228.027344 C 48.214844 228.539062 47.375 228.492188 46.863281 227.980469 C 46.351562 227.46875 46.398438 226.628906 46.910156 226.117188 C 56.132812 217.359375 65.402344 208.371094 74.394531 199.378906 C 82.824219 190.945312 91.304688 182.234375 99.550781 173.570312 L 118.976562 153.167969 C 119.488281 152.65625 120.324219 152.609375 120.839844 153.121094 C 121.398438 153.632812 121.398438 154.472656 120.886719 154.984375 Z M 120.886719 154.984375 " fill-opacity="1" fill-rule="nonzero"></path></g></svg>